<?xml version="1.0" encoding="UTF-8"?>
<svg xmlns="http://www.w3.org/2000/svg" xmlns:xlink="http://www.w3.org/1999/xlink" width="28px" height="28px" viewBox="0 0 28 28" version="1.1">
<g id="surface1">
<path style=" stroke:none;fill-rule:nonzero;fill:rgb(100%,100%,100%);fill-opacity:1;" d="M 28 14 C 28 21.730469 21.730469 28 14 28 C 6.265625 28 0 21.730469 0 14 C 0 6.269531 6.265625 0 14 0 C 21.730469 0 28 6.269531 28 14 "/>
<path style=" stroke:none;fill-rule:nonzero;fill:rgb(95.686275%,47.45098%,12.54902%);fill-opacity:1;" d="M 25.867188 18.738281 L 22.375 13.503906 L 25.050781 9.5625 C 25.363281 9.101562 25.292969 8.585938 24.894531 8.417969 C 24.492188 8.253906 23.863281 8.460938 23.496094 8.882812 L 21.113281 11.621094 L 19.46875 9.152344 C 19.160156 8.683594 18.480469 8.441406 17.957031 8.609375 C 17.4375 8.773438 17.183594 9.335938 17.394531 9.855469 L 19.3125 13.746094 L 16.558594 16.859375 C 16.191406 17.285156 16.132812 18.015625 16.433594 18.488281 L 17.121094 19.578125 C 17.421875 20.054688 17.925781 20.058594 18.238281 19.597656 L 20.550781 16.1875 L 22.429688 19.628906 C 22.640625 20.148438 23.253906 20.449219 23.792969 20.304688 L 25.453125 19.851562 C 25.992188 19.703125 26.179688 19.203125 25.867188 18.738281 "/>
<path style=" stroke:none;fill-rule:nonzero;fill:rgb(31.372549%,18.039216%,50.196078%);fill-opacity:1;" d="M 5.636719 17.921875 C 4.441406 17.921875 3.472656 16.253906 3.472656 14.195312 C 3.472656 12.136719 4.441406 10.46875 5.636719 10.46875 C 6.832031 10.46875 7.800781 12.136719 7.800781 14.195312 C 7.800781 16.253906 6.832031 17.921875 5.636719 17.921875 M 5.636719 8.710938 C 3.066406 8.710938 0.988281 11.167969 0.988281 14.195312 C 0.988281 17.222656 3.066406 19.675781 5.636719 19.675781 C 8.203125 19.675781 10.289062 17.222656 10.289062 14.195312 C 10.289062 11.167969 8.203125 8.710938 5.636719 8.710938 "/>
<path style=" stroke:none;fill-rule:nonzero;fill:rgb(65.882353%,70.980392%,21.960784%);fill-opacity:1;" d="M 11.703125 7.21875 C 11.058594 7.214844 10.839844 7.746094 10.878906 8.292969 L 10.878906 15.320312 C 10.898438 15.980469 11.226562 16.386719 11.964844 16.398438 L 15.84375 16.402344 C 16.457031 16.410156 16.789062 16.269531 16.847656 15.765625 L 16.847656 14.546875 C 16.839844 13.984375 16.265625 13.988281 15.875 13.996094 L 14.28125 13.996094 C 13.648438 13.988281 13.503906 13.886719 13.480469 13.261719 L 13.484375 8.269531 C 13.496094 7.6875 13.296875 7.222656 12.648438 7.214844 L 11.703125 7.21875 "/>
</g>
</svg>
